<?xml version="1.0" encoding="UTF-8"?>
<svg id="Layer_1" data-name="Layer 1" xmlns="http://www.w3.org/2000/svg" xmlns:xlink="http://www.w3.org/1999/xlink" viewBox="0 0 3000 3000">
  <defs>
    <style>
      .cls-1 {
        fill: #fff;
      }

      .cls-2 {
        fill: #b93336;
      }

      .cls-3 {
        fill: #00452c;
      }

      .cls-4 {
        fill: #f4be4c;
      }

      .cls-5 {
        clip-path: url(#clippath);
      }
    </style>
    <clipPath id="clippath">
      <circle class="cls-2" cx="1542.44" cy="2140.73" r="206.65"/>
    </clipPath>
  </defs>
  <g>
    <path class="cls-3" d="M141.84,253.75v736.26c0,716.33,512.34,1383.11,1358.66,1768.24h0c846.33-385.12,1358.66-1051.91,1358.66-1768.24V253.75H141.84Z"/>
    <path class="cls-4" d="M1505.45,2781.09h-9.9l-4.51-2.05c-210.56-95.82-403.6-210.44-573.75-340.68-167.85-128.48-313.06-271.84-431.6-426.11-118.75-154.55-210.28-319.45-272.05-490.13-62.8-173.52-94.64-352.55-94.64-532.1V230.91h2763v759.1c0,179.55-31.84,358.58-94.64,532.1-61.77,170.68-153.3,335.59-272.05,490.13-118.53,154.27-263.74,297.63-431.6,426.11-170.15,130.24-363.19,244.86-573.76,340.68l-4.51,2.05ZM164.67,276.59v713.42c0,708.22,499.11,1359.23,1335.83,1743.13,836.71-383.9,1335.83-1034.9,1335.83-1743.13V276.59H164.67Z"/>
  </g>
  <g>
    <g>
      <g>
        <path class="cls-4" d="M1542.44,2368.39c-102.43,0-189.28-67.99-217.77-161.22l-13.94-5.84c-37.77-15.83-69.8-46.76-88.5-67.7-13.59,26.9-15.32,66.45-14.52,82.56l2.08,41.57-34.68-22.98c-124.62-82.68-181.08-187.12-206.49-260.17-.4-1.15-.8-2.3-1.18-3.44l5.14,28.01-50.75-59.48c-212.44-248.97-173.73-407.46-171.98-414.09l1.45-5.48,80.07-80.07c-102.81-81.61-99.17-171.55-98.95-175.56l.79-14.31,13.61-4.49c5.97-1.97,147.3-47.78,324.5-34.86,23.69-8.21,139.01-46.55,287.11-68.51,96.03-14.23,185.73-18.48,266.6-12.61,102.18,7.42,190.65,31.1,262.97,70.39,112.94,61.37,187.43,160.77,221.54,295.56,126.18,49.55,150.61,79.66,155.12,87.86l2.44,4.43.16,5.05c3.24,105.2-18.64,203.39-65.04,291.84-37.72,71.91-91.73,137.66-160.53,195.44-117.91,99.01-242.9,145.03-278.4,156.78l-17.35,5.74c-37.49,74.41-114.61,125.56-203.46,125.56ZM1542.44,1955.09c-102.36,0-185.64,83.28-185.64,185.64s83.28,185.64,185.64,185.64,185.64-83.28,185.64-185.64-83.28-185.64-185.64-185.64ZM1542.44,1892.4c66.33,0,128.69,25.83,175.59,72.73,46.9,46.9,72.73,109.26,72.73,175.59,0,14.41-1.22,28.67-3.63,42.68,51.17-20.68,142.2-63.66,227.49-135.29,143.2-120.25,214.09-270.36,210.78-446.23-9.45-8.58-42.32-32.97-141.26-70.98l-10.39-3.99-2.53-10.84c-29.95-128.1-98.33-221.97-203.24-279-152.48-82.89-357.47-74.74-502.59-53.31-159.01,23.48-282.93,67.67-284.17,68.11l-4.25,1.53-4.51-.35c-137.67-10.76-255.88,16.78-297.02,28.02,3.95,26.5,21.67,85.3,99.93,139.3l20.76,14.32-106.55,106.55c-1.72,11.84-4.4,44.8,7.83,94.96,12.89,52.82,45.06,134.7,124.46,237.06,4.46-15.72,12.1-33.54,24.95-51.85l41.03-58.48-2.83,71.38c-.02.51-1.65,55.81,23.88,128.24,30.07,85.28,83.27,157.47,158.36,215.05,3.48-30.24,13.42-69.86,40.63-93.54l17.36-15.11,13.47,18.65c.29.4,23.29,31.79,55.38,55.7,0-.86-.01-1.72-.01-2.58,0-66.33,25.83-128.69,72.73-175.59s109.26-72.73,175.59-72.73Z"/>
        <path class="cls-3" d="M1756.65,2217.14c8.61-24.2,13.1-49.96,13.1-76.41,0-60.72-23.64-117.8-66.58-160.73-42.93-42.93-100.02-66.58-160.73-66.58s-117.8,23.64-160.73,66.58c-42.93,42.93-66.58,100.02-66.58,160.73,0,13.98,1.27,27.76,3.72,41.22-54.32-22.76-97.14-82.04-97.14-82.04-39.36,34.26-34.99,117.36-34.99,117.36-231.8-153.8-222.69-383.78-222.69-383.78-34.26,48.84-26.24,92.57-26.24,92.57-207.74-243.46-167.65-395.08-167.65-395.08l93.3-93.3c-115.17-79.45-110.07-172.03-110.07-172.03,0,0,143.6-47.38,320.73-33.53,0,0,878.35-316.35,1017.58,279.18,138.5,53.21,154.53,82.37,154.53,82.37,13.64,442.55-432,604.42-489.57,623.47ZM1542.44,1934.08c-114.13,0-206.65,92.52-206.65,206.65s92.52,206.65,206.65,206.65,206.65-92.52,206.65-206.65-92.52-206.65-206.65-206.65Z"/>
      </g>
      <g>
        <path class="cls-4" d="M1355.84,1754.4s-17.49,134.12,20.41,190.98c0,0-55.4,49.57-74.35,129.02,0,0-98.4-49.57-121-217.22,0,0-24.05,82.37,20.41,182.96,0,0-16.77,20.41-34.99,65.6,0,0-196.08-102.05-189.52-403.09,0,0-39.36,72.16-47.38,132.66,0,0-115.17-131.21-115.17-288.65,0,0,67.79-72.16,126.83-118.81,0,0-83.1-44.46-115.17-131.21,0,0,34.99-54.67,286.47,5.1,0,0-107.15-6.56-201.18,32.07,0,0,5.1,35.72,124.65,55.4,0,0-38.63,43.01-69.98,106.42,0,0,98.4-85.28,240.54-99.86,0,0-209.93,89.66-228.88,250.75,0,0,91.84-110.07,293.76-128.29,0,0-212.12,92.57-151.62,286.47,0,0,15.31-136.31,207.74-169.84,0,0-92.57,118.81-26.24,253.67,0,0,5.83-102.05,54.67-134.12Z"/>
        <path class="cls-4" d="M1420.71,1911.12s-41.08-86.91-.73-190.98c56.1-144.7,229.14-307.61,528.47-182.96,0,0-65.6,21.14,101.32,139.95,0,0,3.64-42.28-7.29-70.71,0,0,50.3,20.41,53.21,121l-60.5,72.16s-73.62.73-137.77-54.67c0,0,12.39-58.31-5.1-98.4,0,0-34.99,40.09-58.31,59.04,0,0-63.42-50.3-67.06-190.98,0,0-282.82,10.93-334.58,354.99,0,0,107.15-98.4,344.05-61.23,236.9,37.18,314.17,82.37,314.17,145.06,0,0-28.43-5.83-42.28,9.48,0,0-16.77,115.17-161.09,152.34,0,0,59.77-35.72,87.47-107.88,0,0-36.45,50.3-130.48,93.3,0,0,32.07-21.87,48.84-73.62,0,0-29.89,40.09-103.51,65.6,0,0,10.2-94.03-69.25-190.98,0,0,45.19-26.24,122.46-19.68,0,0-143.6-77.99-422.05,29.16Z"/>
        <g>
          <path class="cls-1" d="M1457.89,1825.83s10.93-55.4,70.71-132.66c0,0-4.37,43.01,13.85,77.27,0,0,49.57-63.42,108.61-105.69,0,0-5.1,55.4,2.92,80.18,0,0,40.09-39.36,91.12-57.58v89.66s-154.53-16.04-287.2,48.84Z"/>
          <path class="cls-1" d="M1554.1,1666.2s-5.1,20.41,0,45.92c0,0,43.01-62.69,117.36-81.64,0,0-6.56,40.82-.73,84.56,0,0,14.58-24.78,81.64-57.58,0,0-21.14-28.43-26.97-52.48,0,0-91.84-29.16-171.3,61.23Z"/>
          <polygon class="cls-1" points="1770.23 1687.7 1770.23 1757.68 1805.22 1729.25 1770.23 1687.7"/>
          <path class="cls-1" d="M1875.19,1705.93s-58.31,68.52-72.89,78.72c0,0,41.55,9.48,59.04,13.12,0,0,14.58-53.94,13.85-91.84Z"/>
          <path class="cls-1" d="M2073.46,1856.08s22.6,14.58,34.26,29.16c0,0,36.45-20.41,52.48-69.98,0,0-44.46,26.97-86.74,40.82Z"/>
        </g>
        <path class="cls-4" d="M2119.75,1728.16l-60.5,72.16s111.16,22.96,162.19-111.89c0,0-21.87,26.24-64.87,40.82,0,0,24.05-23.33,34.26-50.3,0,0-20.41,24.78-71.07,49.2Z"/>
        <g>
          <g>
            <path class="cls-1" d="M1549.73,1364.43l56.86,78.72h64.87l-25.51-50.3s-37.9-16.77-96.22-28.43Z"/>
            <polygon class="cls-1" points="1677.29 1443.15 1745.08 1443.15 1691.87 1411.81 1677.29 1443.15"/>
          </g>
          <g>
            <path class="cls-1" d="M2003.85,1486.88l38.63,6.56s-.73-20.41-17.49-41.55c0,0-8.02,10.2-21.14,34.99Z"/>
            <path class="cls-1" d="M1995.99,1484.21l-10.65-1.71c-8.9-1.43-17.28-5.12-24.33-10.72l-10.37-8.23h34.26s8.34,10.69,11.1,20.65Z"/>
          </g>
        </g>
        <path class="cls-4" d="M1140.8,1250.71s260.23-26.24,389.25,22.6c0,0-13.85-27.7-90.39-56.13,0,0,193.89-53.21,390.7,215.76,0,0,16.77-21.87-21.87-88.2,0,0,32.07,17.49,72.89,97.68,0,0,133.39-11.66-18.22-137.04,0,0,64.15,29.16,121.73,72.16,0,0-247.83-330.93-844.09-126.83Z"/>
      </g>
      <g>
        <circle class="cls-2" cx="1542.44" cy="2140.73" r="206.65"/>
        <g class="cls-5">
          <path class="cls-1" d="M1763.43,2420.01c-1.89.83-3.77,1.67-5.65,2.51-105.15-216.66-357.72-412.19-704.43-446.32,1.81-2.34,3.63-4.67,5.46-6.99,347.28,36.02,599.76,233.05,704.62,450.8ZM1071.83,1953.3c-1.88,2.3-3.75,4.62-5.61,6.93,347.97,38.56,600.26,237.57,704.66,456.75,1.91-.81,3.83-1.61,5.75-2.41-104.08-220.28-356.27-420.8-704.8-461.28ZM1085.19,1937.55c-1.93,2.28-3.85,4.57-5.76,6.86,349.2,43.03,601.17,245.55,704.77,467.29,1.94-.77,3.89-1.54,5.85-2.29-103.27-222.85-355.12-426.9-704.86-471.86ZM1098.91,1921.96c-1.98,2.26-3.95,4.53-5.91,6.8,350.39,47.54,602,253.6,704.76,477.93,1.98-.73,3.96-1.46,5.95-2.18-102.42-225.46-353.89-433.06-704.8-482.54ZM1112.96,1906.53c-2.03,2.24-4.05,4.48-6.06,6.72,351.53,52.07,602.74,261.72,704.64,488.67,2.01-.7,4.02-1.38,6.04-2.06-101.53-228.1-352.58-439.3-704.62-493.33Z"/>
        </g>
      </g>
    </g>
    <g>
      <path class="cls-4" d="M350.31,474.06h61.37c9.35,136.87,18.73,273.73,28.17,410.59,7.69-136.93,15.43-273.94,27.17-410.59h48.87c-14.69,166.39-29.13,332.8-43.32,499.23-21.4,3.59-42.79,7.31-64.15,11.16-9.27-121.98-18.5-243.97-27.68-365.95-9.94,125.48-19.74,250.97-29.39,376.47-21.35,4.02-42.67,8.17-63.97,12.44-13.83-177.78-27.58-355.56-41.27-533.35h48.87c10.94,142.65,18.13,285.6,25.29,428.48,9.85-142.84,19.87-285.67,30.05-428.48Z"/>
      <path class="cls-4" d="M582.33,866.74c26.76-3.27,53.54-6.4,80.33-9.38-.15,29-.3,58-.45,87-42.87,5.86-85.68,12.15-128.41,18.93.69-163.08,1.38-326.16,2.07-489.23h128.78c-.15,29-.3,58-.45,87-26.82.68-53.64,1.39-80.45,2.13-.17,35.69-.33,71.38-.5,107.07,22.3-1.37,44.6-2.68,66.91-3.93-.15,29.21-.3,58.41-.45,87.62-22.3,1.83-44.59,3.74-66.88,5.72-.17,35.69-.33,71.38-.5,107.07Z"/>
      <path class="cls-4" d="M686.89,941.03c.83-155.66,1.65-311.32,2.48-466.98h48.29c-.68,125.18-1.37,250.36-2.05,375.53,22.31-2.28,44.64-4.44,66.97-6.5-.16,27.92-.31,55.84-.47,83.76-38.44,4.45-76.85,9.17-115.22,14.18Z"/>
      <path class="cls-4" d="M822.1,924.61c.84-150.19,1.68-300.37,2.52-450.56h48.29c-.67,121.01-1.34,242.02-2.01,363.02,22.35-1.87,44.71-3.64,67.07-5.29-.15,27.07-.29,54.13-.44,81.2-38.51,3.6-76.98,7.47-115.44,11.63Z"/>
      <path class="cls-4" d="M957.56,911.19c.77-145.71,1.54-291.42,2.31-437.13h48.29c-.73,144.35-1.45,288.71-2.18,433.06-19.37,1.55-29.06,2.37-48.42,4.07Z"/>
      <path class="cls-4" d="M1094.29,625.87c-.41,91.63-.82,183.26-1.22,274.89-19.39,1.28-29.08,1.95-48.46,3.38.69-143.36,1.38-286.73,2.07-430.09h66.98c12.72,91.29,25.54,182.57,38.44,273.84.36-91.28.72-182.56,1.09-273.84h48.29c-.49,140.2-.98,280.39-1.48,420.59-22.38,1.07-44.75,2.28-67.11,3.62-12.96-90.78-25.82-181.58-38.59-272.39Z"/>
      <path class="cls-4" d="M1331.14,741.56c-9.17.16-13.75.25-22.92.43.06-25.67.12-51.34.18-77.01,23.77-.32,47.54-.59,71.31-.83-.08,55.94-.17,111.87-.25,167.81-.02,15.68-3.6,29.13-10.75,40.38-7.04,11.09-15.44,16.76-25.16,17.01-23.79.65-47.57,1.39-71.35,2.21-9.73.36-18.08-4.82-25.08-15.6-7.09-10.93-10.61-24.33-10.56-40.18l.95-304.54c.05-15.85,3.64-29.4,10.77-40.62,7.02-11.05,15.38-16.57,25.06-16.57h71c9.68,0,18.01,5.48,24.98,16.42,7.08,11.1,10.6,24.49,10.58,40.17-.04,27.76-.08,55.53-.12,83.29-19.35.13-29.03.2-48.38.38.04-21.13.09-42.25.13-63.38-18.3.09-27.45.15-45.75.26-.23,87.59-.46,175.17-.69,262.76,18.35-.52,27.53-.75,45.89-1.16.05-23.75.1-47.49.15-71.24Z"/>
      <path class="cls-4" d="M1444.32,550.56c-18.88.03-28.31.05-47.19.11l.1-76.62h142.29c.01,25.5.03,50.99.04,76.49-18.82-.02-28.23-.03-47.05-.02,0,112.29-.02,224.58-.03,336.87-19.36.02-29.04.07-48.4.24.08-112.36.16-224.72.23-337.07Z"/>
      <path class="cls-4" d="M1659.68,474.06c9.68,0,18.03,5.49,25.05,16.48,7.12,11.15,10.7,24.63,10.73,40.38.24,100.92.49,201.84.73,302.75.04,15.75-3.49,29.11-10.59,40.05-7,10.78-15.37,16.03-25.1,15.77-23.79-.57-47.57-1.05-71.36-1.45-9.73-.14-18.11-5.7-25.15-16.69-7.14-11.15-10.71-24.54-10.72-40.18-.07-100.21-.14-200.43-.2-300.64-.01-15.64,3.52-29,10.61-40.08,6.98-10.91,15.32-16.38,24.99-16.38h71ZM1601.43,550.68c.11,86.98.22,173.96.33,260.94,18.36.25,27.54.4,45.9.76-.16-87.18-.32-174.35-.48-261.53-18.3-.08-27.45-.12-45.75-.17Z"/>
      <path class="cls-4" d="M1781.64,623.42c.3,90.15.6,180.3.9,270.45-19.4-.89-29.11-1.3-48.51-2.03-.39-139.26-.79-278.52-1.18-417.79h66.98c13.56,91.2,27.09,182.4,40.6,273.61-.36-91.2-.71-182.4-1.07-273.61h48.29c.61,141.88,1.23,283.77,1.84,425.65-22.36-1.43-44.73-2.72-67.1-3.88-13.55-90.81-27.14-181.61-40.75-272.41Z"/>
      <path class="cls-4" d="M1999.17,474.06h106.65c9.68,0,18.05,5.86,25.11,17.66,7.16,11.97,10.78,26.46,10.88,43.37.21,38.4.43,76.8.64,115.19-1.42,28.82-3.88,56.65-20.83,80.9-13.03,18.64-29.81,27.25-49.77,26.06-9.15-.55-13.73-.82-22.88-1.35.28,52.02.55,104.04.83,156.06-19.36-1.73-29.04-2.56-48.41-4.14-.74-144.58-1.47-289.17-2.21-433.75ZM2047.9,555.06c.21,39.94.42,79.88.64,119.82,9.15.38,13.73.57,22.87.96,15.25.65,22.82-8.49,22.72-27.49-.17-30.84-.34-61.67-.51-92.51-18.29-.33-27.43-.49-45.72-.79Z"/>
      <path class="cls-4" d="M2272.4,474.06c9.68,0,18.06,6.11,25.11,18.43,7.16,12.5,10.78,27.64,10.87,45.3.6,113.11,1.2,226.22,1.8,339.33.09,17.66-3.37,32.33-10.38,43.9-6.92,11.41-15.22,16.44-24.89,15.22-23.65-2.94-47.31-5.8-70.99-8.56-9.68-1.11-18.06-8.02-25.12-20.67-7.16-12.83-10.79-27.7-10.89-44.7l-1.82-326.86c-.09-17.01,3.37-31.49,10.39-43.54,6.92-11.87,15.23-17.85,24.91-17.85h71ZM2214.52,558.24c.53,95.57,1.06,191.14,1.6,286.71,18.28,1.74,27.42,2.64,45.7,4.49-.53-96.73-1.06-193.46-1.59-290.18-18.28-.42-27.42-.62-45.7-1.02Z"/>
      <path class="cls-4" d="M2347.98,945.92c-.81-157.29-1.61-314.57-2.42-471.86h48.29c.77,159.58,1.54,319.15,2.3,478.73-19.26-2.83-28.9-4.2-48.18-6.87Z"/>
      <path class="cls-4" d="M2481.38,649.12c.43,105.66.86,211.32,1.28,316.98-19.23-3.1-28.85-4.61-48.1-7.56-.73-161.5-1.46-322.99-2.18-484.49h66.98c13.75,108.19,27.29,216.41,40.63,324.65-.37-108.22-.73-216.44-1.1-324.65h48.29c.47,170.02.94,340.04,1.41,510.06-22.12-3.97-44.27-7.81-66.44-11.52-13.39-107.85-26.98-215.67-40.76-323.47Z"/>
      <path class="cls-4" d="M2657.76,570.8c-18.83-.66-28.24-.98-47.08-1.62-.08-31.71-.15-63.42-.23-95.13h142.29v100.22c-18.76-.71-28.15-1.06-46.91-1.75.13,144.61.25,289.22.38,433.83-19.08-3.8-28.63-5.66-47.73-9.31-.24-142.08-.48-284.16-.72-426.24Z"/>
    </g>
    <g>
      <path class="cls-1" d="M631.82,1013.53l20.12-2.87,18.9,63.48c-.91-29.14-1.16-51.16-.75-66.06l16.02-2.28-2.27,81.69-21.16,3.01-17.6-56.07-1.25,58.75-21.16,3.01-25.02-77.8,16.02-2.28c4.55,14.2,10.46,35.41,17.72,63.65l.43-66.23Z"/>
      <path class="cls-1" d="M895.99,1062.24l-7.99-80.16,15.92-1.59,7.99,80.16-15.92,1.59Z"/>
      <path class="cls-1" d="M1117.47,1043.9l-4.91-80.4,15.97-.98,4,65.53,22.14-1.35.91,14.87-38.11,2.33Z"/>
      <path class="cls-1" d="M1353.78,952.82l35.32-.71c3.21-.06,5.99.94,8.35,3.02,2.39,2.11,3.62,4.69,3.68,7.74l.99,49.41c.12,6.16-2.13,11.15-6.75,14.99-4.34,3.61-9.81,5.48-16.41,5.61l-23.56.47-1.61-80.54ZM1370.07,967.4l1.02,50.74,7.57-.15c5.04-.1,7.53-1.9,7.46-5.39l-.91-45.5-15.14.3Z"/>
      <path class="cls-1" d="M1639.52,967.62l-15.13-.33-1.12,50.74,15.14.33.27-12.33,15.99.35-.36,16.23c-.07,3.05-1.3,5.62-3.69,7.73-2.36,2.07-5.15,3.08-8.35,3.01l-23.51-.52c-3.21-.07-5.94-1.19-8.21-3.37-2.3-2.21-3.42-4.84-3.35-7.88l1.3-58.54c.07-3.05,1.3-5.62,3.69-7.73,2.36-2.07,5.15-3.08,8.35-3.01l23.51.52c3.21.07,5.94,1.2,8.21,3.37,2.3,2.21,3.42,4.84,3.35,7.88l-.36,16.18-15.99-.35.27-12.28Z"/>
      <path class="cls-1" d="M1872.41,1026.93l-4.27,16.09-16.15-1.03,20.7-79.4,21.24,1.35,10.42,81.38-16.2-1.03-2.1-16.5-13.64-.87ZM1876.26,1012.24l7.79.5-1.71-34.5-6.08,34.01Z"/>
      <path class="cls-1" d="M2117.2,997.61l-15.53-1.61,1.54-14.82,46.88,4.87-1.54,14.82-15.49-1.61-6.79,65.3-15.86-1.65,6.79-65.3Z"/>
      <path class="cls-1" d="M2377.81,1030.02l-14.98-2.18-1.83,12.58c-.5,3.42,1.75,5.5,6.74,6.22,6.53.95,11.73,3.49,15.59,7.61,4.11,4.38,5.72,9.62,4.83,15.71l-2.39,16.44c-.44,3.02-1.98,5.42-4.61,7.22-2.6,1.77-5.48,2.43-8.66,1.96l-23.27-3.38c-3.17-.46-5.75-1.91-7.74-4.35-2.01-2.47-2.8-5.22-2.36-8.23l2.33-16.07,15.83,2.3-1.78,12.2,14.98,2.18,1.83-12.58c.5-3.42-1.75-5.5-6.75-6.22-6.53-.95-11.73-3.48-15.59-7.61-4.11-4.38-5.72-9.62-4.83-15.71l2.39-16.44c.44-3.01,1.98-5.42,4.61-7.22,2.6-1.77,5.48-2.43,8.66-1.97l23.27,3.38c3.17.46,5.75,1.91,7.74,4.35,2.01,2.47,2.8,5.22,2.36,8.23l-2.33,16.02-15.83-2.3,1.77-12.16Z"/>
    </g>
  </g>
</svg>